<svg xmlns="http://www.w3.org/2000/svg"
     xmlns:xlink="http://www.w3.org/1999/xlink"
     viewBox="-930 -54 512 512"
     version="1.1">
  <path style="fill:currentColor;fill-opacity:1;stroke:white;stroke-width:5" d="m -741.42858,159.50504 -15.2092,22.6656 -26.95489,-4.29916 -23.11323,14.51992 -22.87589,-14.89101 -27.02076,3.86361 -14.84145,-22.90809 -26.25617,-7.46075 -4.24078,-26.96413 -20.95164,-17.49508 7.09316,-26.357846 -12.02439,-24.504354 17.20062,-21.19404 -1.018,-27.276599 24.33394,-12.365596 10.1644,-25.332473 27.2597,-1.399029 19.58929,-19.008131 25.47201,9.809443 25.62701,-9.397112 19.27998,19.321774 27.23359,1.838754 9.75426,25.4931942 24.13123,12.7566826 -1.45805,27.2566092 16.85637,21.468865 -12.41826,24.307109 6.66688,26.468889 -21.23123,17.15469 -4.67537,26.89219 z"/>
</svg>
