<svg xmlns="http://www.w3.org/2000/svg"
     xmlns:xlink="http://www.w3.org/1999/xlink"
     viewBox="0 0 100 100"
     version="1.1">
  <path style="fill:currentColor;fill-opacity:1;stroke:white;stroke-width:4" d="M 50,0 41.56899810964083,9.274102079395085 30,4 25.788732394366196,17 13,17 14.355333844973138,29.36742133537989 2,35 8.39319470699433,45.76748582230624 0,55 10.891502276176023,62.98710166919575 7,75 19.64485981308411,77.63434579439253 21,90 33.15295480880649,87.46813441483198 40,99 50,91.66666666666667 60,99 66.84704519119352,87.46813441483198 79,90 80.35514018691589,77.63434579439253 93,75 89.10849772382397,62.98710166919575 100,55 91.60680529300568,45.76748582230624 98,35 85.64466615502685,29.36742133537989 87,17 74.21126760563381,17 70,4 58.43100189035917,9.274102079395085 z"/>
</svg>
